# xmcd
#
# Track frame offsets: 
#        150
#        19042
#        36342
#        54562
#        73220
#        93127
#        111057
#        120532
#        145270
#        165655
#        188642
#        202860
#        223050
#
# Disc length: 3203 seconds
#
# Revision: 2
# Processed by: cddbd v1.5.2PL0 Copyright (c) Steve Scherf et al.
# Submitted via: ExactAudioCopy v0.99pb5
#
DISCID=b40c810d
DTITLE=Don Baker - No Nonsense
DYEAR=1993
DGENRE=Blues
TTITLE0=Bring Out The Boogie In Me
TTITLE1=Walking By Your Side
TTITLE2=It's Over
TTITLE3=Religion
TTITLE4=Lost Lover
TTITLE5=Childhood Blues
TTITLE6=Almost Illegal
TTITLE7=Louise Baby
TTITLE8=Change The Lock
TTITLE9=Six Days On The Road
TTITLE10=Been Alone Too Long
TTITLE11=Running Man
TTITLE12=Winner In You
EXTD=RTECD 166
EXTT0=
EXTT1=
EXTT2=
EXTT3=
EXTT4=
EXTT5=
EXTT6=
EXTT7=
EXTT8=
EXTT9=
EXTT10=
EXTT11=
EXTT12=
PLAYORDER=
